<?xml version="1.0" encoding="utf-8"?>
<!-- Generator: Adobe Illustrator 21.0.0, SVG Export Plug-In . SVG Version: 6.00 Build 0)  -->
<!DOCTYPE svg PUBLIC "-//W3C//DTD SVG 1.1//EN" "http://www.w3.org/Graphics/SVG/1.1/DTD/svg11.dtd">
<svg version="1.1" id="Layer_1" xmlns="http://www.w3.org/2000/svg" xmlns:xlink="http://www.w3.org/1999/xlink" x="0px" y="0px"
	 viewBox="0 0 1935.9 307.1" style="enable-background:new 0 0 1935.9 307.1;" xml:space="preserve">
<style type="text/css">
	.st0{fill:none;}
	.st1{fill:#97D9FF;}
	.st2{fill:#FFFFFF;}
	.st3{fill:#52BFFF;}
	.st4{fill:#8A8A8A;}
	.st5{fill:#2C89BF;}
</style>
<g>
	<path class="st0" d="M333.5,272.9c0,11.6,11.9,15.9,26.5,15.9c23.6,0,38.5-8.9,45.8-14.8v-17.8c-3.8-0.5-10-1.3-21.4-1.3
		C346.8,254.8,333.5,262.1,333.5,272.9z"/>
	<path class="st0" d="M492,239.2c0,32.4,15.7,49.1,46.1,49.1c19.5,0,32.5-9.7,39.6-16.7V200c-6.8-4-17.9-8.1-35.5-8.1
		C511.2,191.9,492,209.2,492,239.2z"/>
	<path class="st0" d="M228.4,191.9c-28.2,0-43.6,16.7-46.6,39.1h87v-2.4C268.7,209.7,256.8,191.9,228.4,191.9z"/>
	<path class="st0" d="M854.7,191.9c-32.5,0-48.5,21.3-48.5,48.3c0,27.2,16,48,48.5,48c32.5,0,48.5-20.8,48.5-48
		C903.2,213.3,887.2,191.9,854.7,191.9z"/>
	<path class="st1" d="M1741.3,114.2c-21.1,0-41,8.2-55.9,23.1c-14.9,14.9-23.2,34.8-23.2,55.9c0,15.5,4.4,30.3,12.7,42.9v-9l11.1,0
		v-46h-17.1l28-48.1h89.5l28,48.1H1797v45.9l11.2,0.1v8.1c19.2-30.5,15.5-71.4-11-98C1782.3,122.4,1762.4,114.2,1741.3,114.2z"/>
	<path class="st2" d="M1695.9,258h90.8c3.2-2.2,6.2-4.7,9.1-7.5h-109C1689.6,253.3,1692.7,255.8,1695.9,258z"/>
	<path class="st3" d="M123.5,287.4c-4.3,0-6.2-2.2-6.2-7.3v-59.1c0-30.5-15.4-48-46.3-48c-28.4,0-46.6,18.6-49,21.3v-93.6l-21.9,7
		v195.3h21.9v-91.2c5.4-5.7,21.7-20,44.4-20c21.1,0,29,9.2,29,31.6v57.2c0,17.3,6.2,24,21.1,24c17.9,0,29.8-8.9,29.8-8.9l-4.3-12.4
		C142,283.4,131.1,287.4,123.5,287.4z"/>
	<path class="st3" d="M228.4,173.1c-47.1,0-69.1,31-69.1,67.2c0,36.4,22.5,66.9,70.4,66.9c33.9,0,53.1-18.6,53.1-18.6l-6.8-15.4
		c0,0-17.6,15.1-46.3,15.1c-29.3,0-45-16.7-47.9-39.9h104.8c0,0,3-7.8,3-18.1C289.6,210.6,277.1,173.1,228.4,173.1z M268.7,231.1
		h-87c3-22.4,18.4-39.1,46.6-39.1c28.4,0,40.4,17.8,40.4,36.7V231.1z"/>
	<path class="st3" d="M434,287.4c-4.3,0-6.2-2.2-6.2-7.3V213c0-25.6-19.2-39.9-55.8-39.9c-26.5,0-52.6,8.6-52.6,8.6l4.9,17.8
		c0,0,21.4-7.6,43.1-7.6c28.7,0,38.5,8.1,38.5,26.2v22.1c-4.3-0.8-12.2-2.2-21.4-2.2c-53.4,0-72.9,14.3-72.9,35.3
		c0,23.2,18.4,33.7,45,33.7c25.7,0,42-10.3,50.1-16.7c2.2,10.5,10.3,14.3,20.3,14.3c17.9,0,29.8-8.9,29.8-8.9l-4.3-12.4
		C452.4,283.4,441.6,287.4,434,287.4z M405.8,274c-7.3,5.9-22.2,14.8-45.8,14.8c-14.6,0-26.5-4.3-26.5-15.9
		c0-10.8,13.3-18.1,50.9-18.1c11.4,0,17.6,0.8,21.4,1.3V274z"/>
	<path class="st3" d="M605.7,287.4c-4.3,0-6.2-2.2-6.2-7.3V100.8l-21.9,7v72c-9.2-3.5-20.9-6.7-33.9-6.7
		c-46.6,0-73.7,28.6-73.7,66.1c0,38.6,22.2,68,63.9,68c21.1,0,36.8-11.3,44.2-17.5c2.2,11.1,10,15.1,20.6,15.1
		c17.9,0,29.8-8.9,29.8-8.9l-4.3-12.4C624.2,283.4,613.3,287.4,605.7,287.4z M577.6,271.5c-7,7-20,16.7-39.6,16.7
		c-30.3,0-46.1-16.7-46.1-49.1c0-29.9,19.2-47.2,50.1-47.2c17.6,0,28.7,4,35.5,8.1V271.5z"/>
	<path class="st3" d="M712.5,288.2c-32.5,0-48.5-20.8-48.5-48c0-27,16-48.3,48.5-48.3c28.4,0,38.7,10,38.7,10l8.7-16.5
		c0,0-16.3-12.4-47.4-12.4c-47.9,0-70.4,31-70.4,67.2c0,36.4,22.5,66.9,70.4,66.9c33.9,0,53.1-17.3,53.1-17.3l-6.8-16.7
		C758.8,273.1,741.2,288.2,712.5,288.2z"/>
	<path class="st3" d="M854.7,173.1c-47.9,0-70.4,31-70.4,67.2c0,36.4,22.5,66.9,70.4,66.9c48,0,70.4-30.5,70.4-66.9
		C925.1,204.1,902.6,173.1,854.7,173.1z M854.7,288.2c-32.5,0-48.5-20.8-48.5-48c0-27,16-48.3,48.5-48.3c32.5,0,48.5,21.3,48.5,48.3
		C903.2,267.5,887.2,288.2,854.7,288.2z"/>
	<path class="st3" d="M1080.9,287.4c-4.3,0-6.2-2.2-6.2-7.3V175.2l-21.9,7v89.8c-6,4.9-22.5,16.2-44.4,16.2c-21.1,0-29-9.2-29-31.6
		v-79.8h-21.9v82.3c0,30.5,15.4,48,46.3,48c23,0,39.3-9.7,49.6-18.1c2.2,11.1,9.8,15.6,20.6,15.6c17.9,0,29.8-8.9,29.8-8.9
		l-4.3-12.4C1099.3,283.4,1088.5,287.4,1080.9,287.4z"/>
	<path class="st3" d="M1248.3,287.4c-4.3,0-6.2-2.2-6.2-7.3v-59.1c0-30.5-15.4-48-46.3-48c-28.4,0-46.6,18.6-49,21.3v-19.2l-21.9,7
		v120.9h21.9v-91.2c6-5.4,22.5-18.6,44.4-18.6c21.1,0,29,8.9,29,30.2v57.2c0,17.3,6.2,24,21.1,24c17.9,0,29.8-8.9,29.8-8.9
		l-4.3-12.4C1266.7,283.4,1255.9,287.4,1248.3,287.4z"/>
	<path class="st3" d="M1344.8,287.7c-14.9,0-21.7-6.5-21.7-22.1v-70.1h46.6v-18.6h-46.6v-38.3l-21.9,7v31.3h-17.3l-5.4,18.6h22.8
		v69.3c0,29.9,16.3,42.4,43.1,42.4c18.7,0,32.2-10.8,32.2-10.8l-8.1-15.4C1368.3,281,1359.7,287.7,1344.8,287.7z"/>
	<polygon class="st2" points="1782.8,139.1 1700.2,139.1 1679.2,175.2 1704.7,175.2 1741.5,150.7 1778.2,175.2 1803.7,175.2 	"/>
	<path class="st2" d="M1756.1,209.9c0-8.1-6.6-14.6-14.6-14.6s-14.6,6.6-14.6,14.6v23h-46.6v6.6h122.4v-6.6h-46.5V209.9z"/>
	<rect x="1698.4" y="211" class="st3" width="14.3" height="14.3"/>
	<rect x="1698.4" y="187.4" class="st3" width="14.3" height="14.3"/>
	<rect x="1770.1" y="209.4" class="st3" width="14.3" height="14.3"/>
	<rect x="1770.1" y="185.8" class="st3" width="14.3" height="14.3"/>
	<path class="st2" d="M1733,177.1c0,4.7,3.8,8.4,8.4,8.4s8.4-3.8,8.4-8.4s-3.8-8.4-8.4-8.4S1733,172.4,1733,177.1z M1742,170.9v5.2
		l4.2-1.3c0.5-0.1,0.8,0.2,1,0.5c0.2,0.4-0.1,0.8-0.5,0.9l-5.1,1.6c-0.1,0-0.2,0-0.2,0c-0.2,0-0.2-0.1-0.3-0.1
		c0-0.1-0.1-0.1-0.1-0.1c-0.1,0-0.1,0-0.2-0.1l-0.1-0.1c0-0.1-0.1-0.1-0.1-0.2c-0.1,0-0.1-0.1-0.1-0.1c0-0.1,0-0.1,0-0.2
		c0,0,0,0,0-0.1v-6.2c0-0.5,0.3-0.8,0.8-0.8C1741.7,170.1,1742,170.4,1742,170.9z"/>
	<path class="st4" d="M1740.5,170.9v6.2c0,0.1,0,0.1,0,0.1c0,0.1,0,0.1,0,0.2c0,0,0,0.1,0.1,0.1c0,0.1,0.1,0.1,0.1,0.2l0.1,0.1
		c0.1,0.1,0.1,0.1,0.2,0.1c0,0,0.1,0,0.1,0.1c0.1,0,0.2,0.1,0.3,0.1c0.1,0,0.2,0,0.2,0l5.1-1.6c0.5-0.1,0.7-0.5,0.5-0.9
		c-0.2-0.4-0.5-0.6-1-0.5l-4.2,1.3v-5.2c0-0.5-0.3-0.8-0.8-0.8C1740.8,170.1,1740.5,170.4,1740.5,170.9z"/>
	<path class="st5" d="M1579.6,280.2h-123.5l91.7-74.5c5.6-4.7,11-9.5,16.1-14.2c5-4.7,9.4-9.7,13.1-14.8c3.7-5.1,6.6-10.6,8.7-16.3
		c2.1-5.6,3.1-11.8,3.1-18.4c0-9.5-2.2-18-6.4-25.3c-4.3-7.4-10.2-13.6-17.4-18.5c-7.3-4.9-16-8.7-25.6-11.3
		c-9.7-2.6-20-3.9-30.5-3.9c-10.8,0-21,1.4-30.4,4.2c-9.4,2.8-17.8,6.7-24.9,11.8c-7.1,5-13,11-17.6,17.8l-0.1,0.2
		c-2.6,3.9-3,8.7-1.1,13c2,4.4,5.9,7.4,10.7,8c6.2,0.9,12.3-2.4,15-8c3.1-6.4,7.5-12,13.2-16.6c9.1-7.5,20.9-11.3,34.9-11.3
		c6.7,0,13.1,0.9,19,2.8c6,1.8,11.3,4.6,15.8,8.1c4.5,3.5,8.1,7.9,10.8,12.8c2.7,5.1,4.1,10.8,4.1,17c0,9.9-3.1,18.9-9.1,26.8
		c-5.8,7.5-12.8,14.9-20.8,21.8l-94.7,78.3c-5.6,4.6-8.7,11.4-8.7,18.6c0,7.1,5.8,13,13,13h141.7c5.8,0,10.4-4.7,10.4-10.4
		S1585.4,280.2,1579.6,280.2z"/>
	<path class="st5" d="M1579.6,274.2H1473l78.6-63.8c5.7-4.8,11.2-9.6,16.4-14.5c5.3-4.9,10-10.2,13.9-15.7c4-5.5,7.1-11.5,9.4-17.7
		c2.3-6.3,3.5-13.2,3.5-20.5c0-10.6-2.4-20.1-7.3-28.4c-4.8-8.2-11.3-15-19.2-20.4c-7.9-5.3-17.1-9.4-27.4-12.1
		c-10.2-2.7-21-4.1-32.1-4.1c-11.3,0-22.2,1.5-32.1,4.4c-10,3-19,7.2-26.6,12.6c-7.7,5.4-14.1,11.9-19.1,19.3l-0.2,0.2
		c-3.8,5.6-4.4,12.6-1.6,18.8c2.8,6.3,8.5,10.6,15.3,11.5c8.8,1.2,17.4-3.3,21.2-11.4c2.7-5.6,6.6-10.5,11.6-14.6
		c8-6.6,18.5-10,31.1-10c6.1,0,11.9,0.8,17.3,2.5c5.3,1.6,10,4,13.8,7.1c3.8,3,6.9,6.7,9.2,10.9c2.2,4.2,3.4,8.9,3.4,14.2
		c0,8.5-2.7,16.3-7.9,23.2c-5.5,7.2-12.2,14.2-19.9,20.8l-94.6,78.3c-6.9,5.7-10.9,14.2-10.9,23.2c0,10.5,8.5,19,19,19h141.7
		c9.1,0,16.4-7.4,16.4-16.4S1588.7,274.2,1579.6,274.2z M1579.6,301.1h-141.7c-7.1,0-13-5.8-13-13c0-7.2,3.2-14,8.7-18.6l94.7-78.3
		c8-6.9,15-14.2,20.8-21.8c6.1-7.9,9.1-16.9,9.1-26.8c0-6.2-1.4-11.9-4.1-17c-2.7-5-6.3-9.3-10.8-12.8c-4.5-3.5-9.8-6.2-15.8-8.1
		c-6-1.8-12.4-2.8-19-2.8c-14,0-25.7,3.8-34.9,11.3c-5.7,4.7-10.2,10.3-13.2,16.6c-2.7,5.7-8.8,8.9-15,8c-4.7-0.7-8.7-3.7-10.7-8
		c-1.9-4.3-1.5-9.2,1.1-13l0.1-0.2c4.6-6.8,10.5-12.7,17.6-17.8c7.1-5,15.5-9,24.9-11.8c9.4-2.8,19.7-4.2,30.4-4.2
		c10.5,0,20.8,1.3,30.5,3.9c9.6,2.6,18.2,6.4,25.6,11.3c7.2,4.9,13.1,11.1,17.4,18.5c4.3,7.3,6.4,15.9,6.4,25.3
		c0,6.6-1.1,12.8-3.1,18.4c-2.1,5.7-5,11.2-8.7,16.3c-3.7,5.2-8.1,10.2-13.1,14.8c-5.1,4.8-10.5,9.6-16.1,14.2l-91.7,74.5h123.5
		c5.8,0,10.4,4.7,10.4,10.4S1585.4,301.1,1579.6,301.1z"/>
	<path class="st5" d="M1629.4,270.2h-1.5c-8.1,0-14.7,6.6-14.7,14.7v1.5c0,8.1,6.6,14.7,14.7,14.7h1.5c8.1,0,14.7-6.6,14.7-14.7
		v-1.5C1644.1,276.8,1637.5,270.2,1629.4,270.2z"/>
	<path class="st5" d="M1629.4,264.2h-1.5c-11.4,0-20.7,9.3-20.7,20.7v1.5c0,11.4,9.3,20.7,20.7,20.7h1.5c11.4,0,20.7-9.3,20.7-20.7
		v-1.5C1650.1,273.5,1640.8,264.2,1629.4,264.2z M1644.1,286.4c0,8.1-6.6,14.7-14.7,14.7h-1.5c-8.1,0-14.7-6.6-14.7-14.7v-1.5
		c0-8.1,6.6-14.7,14.7-14.7h1.5c8.1,0,14.7,6.6,14.7,14.7V286.4z"/>
	<path class="st5" d="M1924.3,11.6c-3.6-3.6-8.5-5.6-13.6-5.6s-10,2-13.6,5.6l-63.5,63.5c-4.5,4.5-6.5,11-5.3,17.3l0.3,1.6l-18,18
		l-2.1-1.7c-19-15.4-42.7-23.8-67.2-23.8c-1.7,0-3.5,0-5.2,0.1c-26.5,1.3-51.5,12.3-70.3,31.1c-20.1,20.1-31.2,46.9-31.2,75.5
		c0,28.5,11.1,55.3,31.2,75.5c20.1,20.1,46.9,31.2,75.5,31.2s55.3-11.1,75.5-31.2c38.1-38.1,41.8-98.8,8.6-141.2l-1.6-2.1l18.1-18.1
		l1.6,0.3c6.3,1.2,12.8-0.7,17.3-5.3l63.5-63.5C1931.8,31.4,1931.8,19.1,1924.3,11.6z M1801.4,253.4c-16.1,16.1-37.4,24.9-60.2,24.9
		c-22.7,0-44.1-8.8-60.2-24.9c-16.1-16.1-24.9-37.4-24.9-60.2c0-22.7,8.8-44.1,24.9-60.2c16-16,37.4-24.9,60.2-24.9
		s44.1,8.8,60.2,24.9C1834.6,166.3,1834.6,220.3,1801.4,253.4z"/>
	<path class="st5" d="M1928.5,7.4c-4.8-4.8-11.1-7.4-17.9-7.4s-13.1,2.6-17.9,7.4l-63.5,63.5c-5.6,5.6-8.2,13.4-7.2,21.1l-12,12
		c-21.1-16.3-47.4-24.6-74.4-23.3c-28,1.4-54.4,13-74.2,32.8c-21.3,21.3-33,49.6-33,79.7c0,30.1,11.7,58.5,33,79.7
		c21.3,21.3,49.6,33,79.7,33s58.5-11.7,79.7-33c39.6-39.6,44-102.3,10.7-147l12.2-12.2c7.8,1,15.6-1.6,21.1-7.2l63.5-63.5
		C1938.4,33.3,1938.4,17.2,1928.5,7.4z M1924.3,38.9l-63.5,63.5c-4.5,4.5-11,6.5-17.3,5.3l-1.6-0.3l-18.1,18.1l1.6,2.1
		c33.2,42.4,29.5,103.1-8.6,141.2c-20.1,20.1-46.9,31.2-75.5,31.2s-55.3-11.1-75.5-31.2c-20.1-20.1-31.2-46.9-31.2-75.5
		c0-28.5,11.1-55.3,31.2-75.5c18.8-18.8,43.7-29.8,70.3-31.1c1.7-0.1,3.5-0.1,5.2-0.1c24.5,0,48.2,8.3,67.2,23.8l2.1,1.7l18-18
		l-0.3-1.6c-1.2-6.3,0.7-12.8,5.3-17.3l63.5-63.5c3.6-3.6,8.5-5.6,13.6-5.6s10,2,13.6,5.6C1931.8,19.1,1931.8,31.4,1924.3,38.9z"/>
	<path class="st5" d="M1741.3,108.2c-22.8,0-44.1,8.8-60.2,24.9c-16.1,16.1-24.9,37.4-24.9,60.2c0,22.7,8.8,44.1,24.9,60.2
		c16.1,16.1,37.4,24.9,60.2,24.9c22.7,0,44.1-8.8,60.2-24.9c33.2-33.2,33.2-87.1,0-120.3C1785.4,117.1,1764,108.2,1741.3,108.2z
		 M1786.6,258h-90.8c-3.2-2.2-6.2-4.7-9.1-7.5h109C1792.9,253.3,1789.8,255.8,1786.6,258z M1802.6,239.5h-122.4v-6.6h46.6v-23
		c0-8.1,6.6-14.6,14.6-14.6s14.6,6.6,14.6,14.6v23h46.5V239.5z M1770.1,200.2v-14.3h14.3v14.3H1770.1z M1784.5,209.4v14.3h-14.3
		v-14.3H1784.5z M1778.2,175.2l-36.8-24.5l-36.8,24.5h-25.5l21-36.1h82.6l21,36.1H1778.2z M1749.9,177.1c0,4.7-3.8,8.4-8.4,8.4
		s-8.4-3.8-8.4-8.4s3.8-8.4,8.4-8.4S1749.9,172.4,1749.9,177.1z M1712.8,187.4v14.3h-14.3v-14.3H1712.8z M1698.4,211h14.3v14.3
		h-14.3V211z M1808.2,235.3v-8.1l-11.2-0.1v-45.9h17.1l-28-48.1h-89.5l-28,48.1h17.1v46l-11.1,0v9c-8.2-12.7-12.7-27.5-12.7-42.9
		c0-21.1,8.2-41,23.2-55.9c14.9-14.9,34.8-23.1,55.9-23.1s41,8.2,55.9,23.1C1823.7,163.9,1827.4,204.8,1808.2,235.3z"/>
</g>
</svg>
